<?xml version="1.0" standalone="no"?>
<!DOCTYPE svg PUBLIC "-//W3C//DTD SVG 1.1//EN" "http://www.w3.org/Graphics/SVG/1.1/DTD/svg11.dtd" >
<svg xmlns="http://www.w3.org/2000/svg" xmlns:xlink="http://www.w3.org/1999/xlink" version="1.1">
<metadata></metadata>
<defs>
<font id="technicznapomocregular" horiz-adv-x="1139" >
<font-face units-per-em="2048" ascent="1638" descent="-410" />
<missing-glyph horiz-adv-x="799" />
<glyph horiz-adv-x="0" />
<glyph unicode="&#xd;" horiz-adv-x="569" />
<glyph unicode=" "  horiz-adv-x="799" />
<glyph unicode="&#x09;" horiz-adv-x="799" />
<glyph unicode="&#xa0;" horiz-adv-x="799" />
<glyph unicode="!" horiz-adv-x="501" d="M0 0v200h200v-200h-200zM0 400v1400h200v-1400h-200z" />
<glyph unicode="&#x22;" horiz-adv-x="1102" d="M0 1300l157 500h200l-157 -500h-200zM410 1300l157 500h200l-157 -500h-200z" />
<glyph unicode="#" horiz-adv-x="1500" d="M0 500v200h200v400h-200v200h200v300h200v-300h400v300h200v-300h200v-200h-200v-400h200v-200h-200v-300h-200v300h-400v-300h-200v300h-200zM400 700h400v400h-400v-400z" />
<glyph unicode="$" horiz-adv-x="2602" d="M0 209v1380h617q7 -1 16 -4l109 -83l10 -10l12 -8l10 -8l284 -217l2 18l-2 312h629l2 -1v-477q-1 0 -2 -2l-8 -12l-14 -26l-16 -21l-8 -13l-3 -16q-3 -6 -5 -13l-11 -29l-16 -23l-8 -8q-4 -6 -7 -13l-24 -35l-4 -16l-8 -11q-4 -5 -8 -11l-10 -28l-10 -10q-3 -7 -11 -8 q-6 0 -14 5l-10 9l-8 11l-4 17l-10 85q-1 8 -3 16l-6 70l-3 16l-8 13q-6 4 -12 6l-35 4l-35 -4l-15 -3l-22 -16l-3 -18v-37l3 -18q0 -8 2 -18l3 -15l53 -159q4 -6 5 -14l6 -34l9 -28q0 -8 3 -16q4 -6 7 -14q2 -7 3 -16l3 -16l5 -14l3 -16l7 -12q3 -6 8 -12l11 -27 q3 -6 7 -13q1 -6 6 -12l20 -18l16 -5q6 -3 16 -3h19q6 4 13 7l11 9q5 3 10 8l7 12q5 5 8 12l11 26l1 16v42q0 7 3 17l9 30q0 7 4 15l6 12l4 15l8 12l27 50q4 5 9 11l8 11q2 3 7 7v-613h-627q1 6 1 12l-185 257l-8 12l-233 323v-604h-637zM3 -3v132h25q10 -1 13 -10 q5 -7 10 -16l10 -15q3 -6 8 -15l9 -15l3 18v53h34v-130l-24 -2q-10 2 -16 7l-9 16q-4 7 -9 16l-9 15q-3 7 -9 14l-3 -15v-53h-33zM134 54v16l1 14l5 13l5 9l7 9l10 8l10 5l13 2h17l24 -6l9 -7q4 -4 8 -9l6 -10l3 -11l3 -15v-16l-5 -27l-6 -11l-7 -8l-10 -7l-9 -4l-15 -4h-16 l-14 4q-6 1 -11 4l-10 6l-7 9l-10 22zM171 57l1 -14q2 -4 5 -9l9 -7l13 -1l10 5l6 10l4 13v14l-3 14q-2 6 -5 11l-9 5l-13 2q-5 -2 -11 -6q-2 -5 -5 -10l-2 -13v-14zM257 129h34l13 -70l3 5l12 54q2 6 6 11l32 -1l15 -66l4 4l11 56q1 7 8 7h27l-25 -129q-7 -1 -14 -3h-16 q-6 2 -9 7l-16 66q-2 5 -2 7l-21 -77l-15 -3h-15q-6 3 -7 9zM422 -3l42 132h35q7 -1 9 -10l38 -118q-4 -3 -11 -4h-18q-7 2 -8 7l-5 14h-34q-8 -2 -9 -9l-5 -12h-34zM472 51q7 -3 14 -4h11l-14 47zM561 -3v132h36v-48l27 34q5 8 13 14h45l-3 -4l-11 -11q-4 -8 -12 -14 l-15 -23l42 -80h-37q-9 3 -12 12l-8 18q-3 7 -7 16l-3 5l-19 -21v-30h-36zM663 226v482l91 -114q2 -6 5 -13v-299q-3 -5 -8 -10l-86 -62zM674 1573l169 -24l173 -137q5 -5 10 -11l5 -92l-201 148l-10 10zM742 98v31h106q3 -5 4 -11v-16q-4 -5 -11 -5h-24q-1 -1 -2 -3v-97 h-24q-6 1 -12 3v90q-1 6 -9 7h-14q-6 0 -14 1zM779 884l1 -2l1 -14l5 -10l6 -9l6 -8l22 -9q5 -2 12 -4l14 -1l13 2l11 4q5 2 8 7l10 20l6 9l16 15l13 17l15 16l40 23l7 6q4 2 7 7q4 4 9 8l19 10l44 32l11 6q3 2 8 7l9 6h24l2 -4l9 -37l5 -147l3 -12q1 -6 3 -12l-7 -132 q0 -6 -2 -12l2 -30l-5 -24l-5 -10l-2 -13l4 -42l7 -22l2 -14l9 -22q0 -6 2 -13v-15l7 -68l4 -11l8 -9l10 -5l27 -3l11 -3l14 -3h13l25 6l9 6q3 5 10 7q4 3 7 7l7 39l4 12l1 13l-21 99q-3 5 -4 13l-2 14l-2 9l2 10l-2 5l-1 29l5 40v182l-4 26l-6 192l5 40l6 9l9 7l23 8l10 5 l8 7l21 9q5 1 11 5l10 6q3 3 8 6l29 18l11 2l9 7l9 5l13 4l9 5l22 25l5 10l3 11l3 13l-4 12l-7 9l-6 8l-6 8l-10 6l-12 3h-30l-30 -17l-8 -7q-4 -1 -9 -5l-10 -5l-15 -17l-17 -12l-10 -5l-9 -6l-13 -4l-28 -16l-14 -1l-21 -10l-13 -3q-7 1 -12 3l-36 10l-15 1q-6 -1 -13 -3 l-8 -6l-11 -5q-5 -1 -8 -6l-9 -7l-6 -25v-3v-8q0 -6 3 -12l3 -4l-4 -21l-5 -11l-27 -19l-11 -5q-4 -2 -8 -6q-4 -3 -9 -6l-24 -8l-28 -16l-11 -6q-4 -2 -9 -6l-9 -6l-30 -15l-15 -15l-20 -11l-10 -5l-15 -15l-48 -14l-10 -5l-14 -14l-8 -10l-5 -9l-5 -25zM867 0v129h97v-29 h-60v-18h55l1 -28h-55l-1 -3v-22l10 -1h44l8 -1v-30h-96zM985 -3v132h36v-100h57v-32h-93zM1093 0v129h96v-29h-60v-18h55l1 -28h-55l-1 -3v-22l10 -1h44l9 -1v-30h-96q-2 1 -3 3zM1199 129h38l2 -5l23 -87l5 10l19 70q0 8 10 12h30l-27 -78q-1 -8 -5 -17l-11 -37h-40z M1340 -3v132h36v-132h-36zM1394 38q0 2 3 3l25 1q9 -1 9 -13q7 -7 18 -9q8 2 14 9q0 11 -8 17q-8 4 -19 7l-19 7q-6 5 -13 12q-4 10 -5 22q1 8 6 18q5 7 14 12q7 5 17 6h18h8q8 -2 18 -7q6 -6 11 -15q3 -7 5 -16h-6l-24 -3q-6 5 -11 14l-7 3l-12 -3l-5 -9q3 -3 7 -6l40 -12 q6 -5 13 -12q5 -7 8 -18l1 -12l-3 -6v-4q-3 -8 -10 -16q-6 -5 -15 -8q-10 -5 -22 -5h-14l-7 2l-3 2q-9 1 -17 7q-5 7 -10 15zM1520 -3v132h37v-132h-37zM1576 54v16l2 14l4 13l6 9l7 9l9 8l12 5l11 2h17l25 -6l8 -7q4 -4 7 -9l6 -10l5 -11l1 -15v-16l-4 -27l-5 -11l-8 -8 l-8 -7l-12 -4l-12 -4h-18l-13 4q-6 1 -12 4l-9 6l-7 9l-10 22zM1612 57l4 -14q0 -4 4 -9l8 -7l13 -1l12 5l5 10l2 13v14l-2 14q-1 6 -5 11l-7 5l-14 2q-6 -2 -11 -6q-3 -5 -5 -10l-4 -13v-14zM1716 209v655l1 3l9 28l17 21q5 5 7 13l11 27q2 8 5 15l27 50l10 8l14 24l9 11 l11 7l14 25l8 10l22 35l10 11l12 7q6 3 11 7l8 11l10 11l37 19l15 6l40 35l17 42q2 7 3 15v38l-5 14l-7 13l-16 21l-12 7q-8 2 -16 3h-19l-15 -1q-9 -1 -17 -4l-14 -5l-21 -16l-28 -30l-23 -34l-42 -35l-49 -66l-21 -35l-18 -21l-5 -10v445l14 -6l10 -9l69 -45l2 -209l9 7 l14 22q5 6 11 10q4 5 10 9l24 33l47 30l13 6l17 3h18l34 -7l13 -6l22 -15l9 -11l16 -22l6 -14q2 -6 3 -16v-57l-13 -43l-23 -35q-4 -5 -10 -9l-47 -30q-7 -2 -14 -5l-12 -6l-13 -6l-8 -11q-5 -5 -9 -11l-13 -6q-4 -5 -10 -10q-2 -5 -7 -11l-50 -66q-3 -5 -6 -11l-26 -32 q-3 -6 -5 -15v-703l-2 -2l-66 -50l-9 -9l-12 -7zM1718 -3v132h25q9 -1 14 -10q4 -7 9 -16l9 -15l10 -15l8 -15l2 18v53h34v-130l-24 -2q-8 2 -15 7l-9 16q-4 7 -8 16l-10 15q-3 7 -10 14l-2 -15v-53h-33z" />
<glyph unicode="%" horiz-adv-x="1797" d="M0 1439q0 152 103.5 255.5t255.5 103.5q153 0 256.5 -103.5t103.5 -255.5q0 -153 -103.5 -256.5t-256.5 -103.5q-152 0 -255.5 103.5t-103.5 256.5zM59 21l1170 1899l175 -120l-1170 -1898zM180 1439q0 -74 53 -127t126 -53q75 0 127.5 52.5t52.5 127.5q0 76 -51.5 127.5 t-128.5 51.5q-75 0 -127 -52t-52 -127zM810 491q0 152 103.5 255.5t255.5 103.5q153 0 256.5 -103.5t103.5 -255.5q0 -153 -103.5 -256.5t-256.5 -103.5q-152 0 -255.5 103.5t-103.5 256.5zM990 491q0 -74 53 -127t126 -53q75 0 127.5 52.5t52.5 127.5q0 76 -51.5 127.5 t-128.5 51.5q-75 0 -127 -52.5t-52 -126.5z" />
<glyph unicode="&#x26;" horiz-adv-x="2602" d="M0 209v1380h617q7 -1 16 -4l109 -83l10 -10l12 -8l10 -8l284 -217l2 18l-2 312h629l2 -1v-477q-1 0 -2 -2l-8 -12l-14 -26l-16 -21l-8 -13l-3 -16q-3 -6 -5 -13l-11 -29l-16 -23l-8 -8q-4 -6 -7 -13l-24 -35l-4 -16l-8 -11q-4 -5 -8 -11l-10 -28l-10 -10q-3 -7 -11 -8 q-6 0 -14 5l-10 9l-8 11l-4 17l-10 85q-1 8 -3 16l-6 70l-3 16l-8 13q-6 4 -12 6l-35 4l-35 -4l-15 -3l-22 -16l-3 -18v-37l3 -18q0 -8 2 -18l3 -15l53 -159q4 -6 5 -14l6 -34l9 -28q0 -8 3 -16q4 -6 7 -14q2 -7 3 -16l3 -16l5 -14l3 -16l7 -12q3 -6 8 -12l11 -27 q3 -6 7 -13q1 -6 6 -12l20 -18l16 -5q6 -3 16 -3h19q6 4 13 7l11 9q5 3 10 8l7 12q5 5 8 12l11 26l1 16v42q0 7 3 17l9 30q0 7 4 15l6 12l4 15l8 12l27 50q4 5 9 11l8 11q2 3 7 7v-613h-627q1 6 1 12l-185 257l-8 12l-233 323v-604h-637zM3 -3v132h25q10 -1 13 -10 q5 -7 10 -16l10 -15q3 -6 8 -15l9 -15l3 18v53h34v-130l-24 -2q-10 2 -16 7l-9 16q-4 7 -9 16l-9 15q-3 7 -9 14l-3 -15v-53h-33zM134 54v16l1 14l5 13l5 9l7 9l10 8l10 5l13 2h17l24 -6l9 -7q4 -4 8 -9l6 -10l3 -11l3 -15v-16l-5 -27l-6 -11l-7 -8l-10 -7l-9 -4l-15 -4h-16 l-14 4q-6 1 -11 4l-10 6l-7 9l-10 22zM171 57l1 -14q2 -4 5 -9l9 -7l13 -1l10 5l6 10l4 13v14l-3 14q-2 6 -5 11l-9 5l-13 2q-5 -2 -11 -6q-2 -5 -5 -10l-2 -13v-14zM257 129h34l13 -70l3 5l12 54q2 6 6 11l32 -1l15 -66l4 4l11 56q1 7 8 7h27l-25 -129q-7 -1 -14 -3h-16 q-6 2 -9 7l-16 66q-2 5 -2 7l-21 -77l-15 -3h-15q-6 3 -7 9zM422 -3l42 132h35q7 -1 9 -10l38 -118q-4 -3 -11 -4h-18q-7 2 -8 7l-5 14h-34q-8 -2 -9 -9l-5 -12h-34zM472 51q7 -3 14 -4h11l-14 47zM561 -3v132h36v-48l27 34q5 8 13 14h45l-3 -4l-11 -11q-4 -8 -12 -14 l-15 -23l42 -80h-37q-9 3 -12 12l-8 18q-3 7 -7 16l-3 5l-19 -21v-30h-36zM663 226v482l91 -114q2 -6 5 -13v-299q-3 -5 -8 -10l-86 -62zM674 1573l169 -24l173 -137q5 -5 10 -11l5 -92l-201 148l-10 10zM742 98v31h106q3 -5 4 -11v-16q-4 -5 -11 -5h-24q-1 -1 -2 -3v-97 h-24q-6 1 -12 3v90q-1 6 -9 7h-14q-6 0 -14 1zM779 884l1 -2l1 -14l5 -10l6 -9l6 -8l22 -9q5 -2 12 -4l14 -1l13 2l11 4q5 2 8 7l10 20l6 9l16 15l13 17l15 16l40 23l7 6q4 2 7 7q4 4 9 8l19 10l44 32l11 6q3 2 8 7l9 6h24l2 -4l9 -37l5 -147l3 -12q1 -6 3 -12l-7 -132 q0 -6 -2 -12l2 -30l-5 -24l-5 -10l-2 -13l4 -42l7 -22l2 -14l9 -22q0 -6 2 -13v-15l7 -68l4 -11l8 -9l10 -5l27 -3l11 -3l14 -3h13l25 6l9 6q3 5 10 7q4 3 7 7l7 39l4 12l1 13l-21 99q-3 5 -4 13l-2 14l-2 9l2 10l-2 5l-1 29l5 40v182l-4 26l-6 192l5 40l6 9l9 7l23 8l10 5 l8 7l21 9q5 1 11 5l10 6q3 3 8 6l29 18l11 2l9 7l9 5l13 4l9 5l22 25l5 10l3 11l3 13l-4 12l-7 9l-6 8l-6 8l-10 6l-12 3h-30l-30 -17l-8 -7q-4 -1 -9 -5l-10 -5l-15 -17l-17 -12l-10 -5l-9 -6l-13 -4l-28 -16l-14 -1l-21 -10l-13 -3q-7 1 -12 3l-36 10l-15 1q-6 -1 -13 -3 l-8 -6l-11 -5q-5 -1 -8 -6l-9 -7l-6 -25v-3v-8q0 -6 3 -12l3 -4l-4 -21l-5 -11l-27 -19l-11 -5q-4 -2 -8 -6q-4 -3 -9 -6l-24 -8l-28 -16l-11 -6q-4 -2 -9 -6l-9 -6l-30 -15l-15 -15l-20 -11l-10 -5l-15 -15l-48 -14l-10 -5l-14 -14l-8 -10l-5 -9l-5 -25zM867 0v129h97v-29 h-60v-18h55l1 -28h-55l-1 -3v-22l10 -1h44l8 -1v-30h-96zM985 -3v132h36v-100h57v-32h-93zM1093 0v129h96v-29h-60v-18h55l1 -28h-55l-1 -3v-22l10 -1h44l9 -1v-30h-96q-2 1 -3 3zM1199 129h38l2 -5l23 -87l5 10l19 70q0 8 10 12h30l-27 -78q-1 -8 -5 -17l-11 -37h-40z M1340 -3v132h36v-132h-36zM1394 38q0 2 3 3l25 1q9 -1 9 -13q7 -7 18 -9q8 2 14 9q0 11 -8 17q-8 4 -19 7l-19 7q-6 5 -13 12q-4 10 -5 22q1 8 6 18q5 7 14 12q7 5 17 6h18h8q8 -2 18 -7q6 -6 11 -15q3 -7 5 -16h-6l-24 -3q-6 5 -11 14l-7 3l-12 -3l-5 -9q3 -3 7 -6l40 -12 q6 -5 13 -12q5 -7 8 -18l1 -12l-3 -6v-4q-3 -8 -10 -16q-6 -5 -15 -8q-10 -5 -22 -5h-14l-7 2l-3 2q-9 1 -17 7q-5 7 -10 15zM1520 -3v132h37v-132h-37zM1576 54v16l2 14l4 13l6 9l7 9l9 8l12 5l11 2h17l25 -6l8 -7q4 -4 7 -9l6 -10l5 -11l1 -15v-16l-4 -27l-5 -11l-8 -8 l-8 -7l-12 -4l-12 -4h-18l-13 4q-6 1 -12 4l-9 6l-7 9l-10 22zM1612 57l4 -14q0 -4 4 -9l8 -7l13 -1l12 5l5 10l2 13v14l-2 14q-1 6 -5 11l-7 5l-14 2q-6 -2 -11 -6q-3 -5 -5 -10l-4 -13v-14zM1716 209v655l1 3l9 28l17 21q5 5 7 13l11 27q2 8 5 15l27 50l10 8l14 24l9 11 l11 7l14 25l8 10l22 35l10 11l12 7q6 3 11 7l8 11l10 11l37 19l15 6l40 35l17 42q2 7 3 15v38l-5 14l-7 13l-16 21l-12 7q-8 2 -16 3h-19l-15 -1q-9 -1 -17 -4l-14 -5l-21 -16l-28 -30l-23 -34l-42 -35l-49 -66l-21 -35l-18 -21l-5 -10v445l14 -6l10 -9l69 -45l2 -209l9 7 l14 22q5 6 11 10q4 5 10 9l24 33l47 30l13 6l17 3h18l34 -7l13 -6l22 -15l9 -11l16 -22l6 -14q2 -6 3 -16v-57l-13 -43l-23 -35q-4 -5 -10 -9l-47 -30q-7 -2 -14 -5l-12 -6l-13 -6l-8 -11q-5 -5 -9 -11l-13 -6q-4 -5 -10 -10q-2 -5 -7 -11l-50 -66q-3 -5 -6 -11l-26 -32 q-3 -6 -5 -15v-703l-2 -2l-66 -50l-9 -9l-12 -7zM1718 -3v132h25q9 -1 14 -10q4 -7 9 -16l9 -15l10 -15l8 -15l2 18v53h34v-130l-24 -2q-8 2 -15 7l-9 16q-4 7 -8 16l-10 15q-3 7 -10 14l-2 -15v-53h-33z" />
<glyph unicode="'" horiz-adv-x="699" d="M0 1300l157 500h200l-157 -500h-200z" />
<glyph unicode="(" horiz-adv-x="696" d="M0 905q0 247 44 505q50 290 139 485l184 -77q-84 -242 -115 -397q-52 -256 -52 -516t52 -516q31 -155 115 -396l-184 -77q-89 194 -139 484q-44 258 -44 505z" />
<glyph unicode=")" horiz-adv-x="696" d="M0 -7q83 241 114 396q53 256 53 516t-53 516q-31 155 -114 397l183 77q90 -195 139 -485q45 -258 45 -505t-45 -505q-49 -290 -139 -484z" />
<glyph unicode="*" horiz-adv-x="1297" d="M0 1275l57 177l318 -104v335h185v-335l316 104l58 -175l-317 -105l198 -271l-150 -108l-197 271l-196 -272l-150 109l196 272z" />
<glyph unicode="+" horiz-adv-x="1302" d="M0 900v200h400v400h200v-400h400v-200h-400v-400h-200v400h-400z" />
<glyph unicode="," horiz-adv-x="699" d="M0 -200l157 500h200l-157 -500h-200z" />
<glyph unicode="-" horiz-adv-x="1300" d="M0 900v200h1000v-200h-1000z" />
<glyph unicode="." horiz-adv-x="499" d="M0 0v200h200v-200h-200z" />
<glyph unicode="/" horiz-adv-x="1797" d="M0 22l1169 1898l175 -119l-1169 -1899z" />
<glyph unicode="0" horiz-adv-x="1197" d="M0 500v800q0 500 450 500t450 -500v-800q0 -500 -450 -500t-450 500zM200 500q0 -300 250 -300t250 300v800q0 300 -250 300t-250 -300v-800z" />
<glyph unicode="1" horiz-adv-x="898" d="M-10 1395l460 407h150v-1802h-200v1480l-273 -238z" />
<glyph unicode="2" horiz-adv-x="1197" d="M0 0v150q409 645 644 1053q65 108 57.5 193.5t-72 142t-170.5 61.5q-122 -1 -181.5 -89t-46.5 -210h-213q26 254 145.5 377.5t295.5 123.5q177 0 309 -116.5t132 -329.5q0 -172 -95 -296l-505 -860h600v-200h-900z" />
<glyph unicode="3" horiz-adv-x="1199" d="M0 0v200h400q300 0 300 300v131q0 114 -82.5 191.5t-196.5 77.5h-241v200h241q116 0 197.5 68.5t81.5 183.5q0 114 -82.5 181t-196.5 67h-421v200h451q188 0 318.5 -130t130.5 -318q0 -224 -179 -361q179 -136 179 -360v-131q0 -500 -500 -500h-400z" />
<glyph unicode="4" horiz-adv-x="1199" d="M0 400l409 1400h217l-347 -1200h321v301h200v-301h300v-200h-300v-400h-200v400h-600z" />
<glyph unicode="5" horiz-adv-x="1209" d="M0 0v200h400q300 0 300 300v130q0 270 -300 270h-400v900h800v-200h-620v-500h220q500 0 500 -470v-130q0 -500 -500 -500h-400z" />
<glyph unicode="6" horiz-adv-x="1195" d="M0 450v542q0 326 196.5 536t478.5 272l54 -176q-96 -22 -235.5 -112.5t-216 -212t-77.5 -199.5h251q193 0 321 -138t128 -331v-181q0 -189 -129.5 -319.5t-320.5 -130.5q-189 0 -319.5 129t-130.5 321zM200 450q0 -115 68 -182.5t182 -67.5q116 0 183 68t67 182v181 q0 115 -67 192t-182 77h-251v-450z" />
<glyph unicode="7" horiz-adv-x="1194" d="M0 1500v300h900v-150l-372 -1650h-206l368 1600h-490v-100h-200z" />
<glyph unicode="8" horiz-adv-x="1199" d="M0 451v180q0 224 180 360q-180 137 -180 361q0 189 130.5 318.5t320.5 129.5q189 0 319 -129.5t130 -318.5q0 -224 -179 -361q129 -119 154 -215t25 -325q0 -190 -130 -320.5t-319 -130.5q-190 0 -320.5 130.5t-130.5 320.5zM200 451q0 -115 68 -183t183 -68 q116 0 182.5 68t66.5 183v180q0 114 -67.5 191.5t-181.5 77.5q-115 0 -183 -77.5t-68 -191.5v-180zM200 1352q0 -115 68 -183.5t183 -68.5q116 0 182.5 68.5t66.5 183.5q0 114 -67.5 181t-181.5 67q-115 0 -183 -67t-68 -181z" />
<glyph unicode="9" horiz-adv-x="1195" d="M0 1169v181q0 189 129.5 319.5t320.5 130.5q189 0 319.5 -129t130.5 -321v-542q0 -326 -196.5 -536t-478.5 -272l-54 176q96 22 235.5 112.5t216 212t77.5 199.5h-251q-193 0 -321 138t-128 331zM200 1169q0 -115 67 -192t182 -77h251v450q0 115 -68 182.5t-182 67.5 q-116 0 -183 -68t-67 -182v-181z" />
<glyph unicode=":" horiz-adv-x="499" d="M0 0v200h200v-200h-200zM0 1100v200h200v-200h-200z" />
<glyph unicode=";" horiz-adv-x="700" d="M0 -200l157 500h200l-157 -500h-200zM157 1100v200h200v-200h-200z" />
<glyph unicode="&#x3c;" horiz-adv-x="1204" d="M0 817v208l748 294l61 -217l-476 -176l491 -175l-76 -227z" />
<glyph unicode="=" horiz-adv-x="1300" d="M0 700v200h1000v-200h-1000zM0 1100v200h1000v-200h-1000z" />
<glyph unicode="&#x3e;" horiz-adv-x="1204" d="M0 751l491 175l-476 176l61 217l748 -294v-208l-748 -293z" />
<glyph unicode="?" horiz-adv-x="1199" d="M0 1693q292 128 532 107q142 0 255 -113.5t113 -285.5q0 -169 -115 -285l-201 -245q-32 -30 -34 -73v-402h-200v402q0 126 87 219l210 244q53 55 53 140t-56.5 142t-111.5 57q-127 10 -201.5 -8.5t-252.5 -82.5zM350 0v200h200v-200h-200z" />
<glyph unicode="@" horiz-adv-x="2193" d="M0 450v700q0 370 240.5 610t589.5 240q351 0 590.5 -239t239.5 -590v-645q0 -152 -86 -264t-234 -112q-176 0 -233 145q-84 -145 -277 -145q-158 0 -269 109t-111 261v550q0 167 111 273.5t269 106.5h370v-924q0 -176 137 -176q123 0 123 176v645q0 271 -179.5 450 t-450.5 179t-450.5 -179t-179.5 -471v-700q0 -284 181 -467t449 -183v-200q-348 0 -589 243t-241 607zM650 520q0 -70 52.5 -120t127.5 -50q77 0 123.5 49.5t46.5 126.5v724h-170q-77 0 -128.5 -47t-51.5 -133v-550z" />
<glyph unicode="A" horiz-adv-x="1400" d="M0 0l500 1800h150l500 -1800h-200l-110 450h-529l-111 -450h-200zM371 630h409l-205 794z" />
<glyph unicode="B" horiz-adv-x="1398" d="M0 0v1800h541q192 0 325.5 -128t133.5 -320q0 -216 -176 -351q276 -153 276 -460q0 -227 -166.5 -384t-392.5 -157h-541zM200 200h341q144 0 251.5 93t107.5 248q0 154 -107.5 256.5t-251.5 102.5h-341v-700zM200 1100h341q104 0 181.5 68.5t77.5 183.5q0 114 -77.5 181 t-181.5 67h-341v-500z" />
<glyph unicode="C" horiz-adv-x="1197" d="M0 500v800q0 500 500 500h400v-200h-400q-300 0 -300 -300v-800q0 -300 300 -300h400v-200h-400q-500 0 -500 500z" />
<glyph unicode="D" horiz-adv-x="1299" d="M0 0v1800h500q500 0 500 -500v-800q0 -500 -500 -500h-500zM200 200h300q300 0 300 300v800q0 300 -300 300h-300v-1400z" />
<glyph unicode="E" horiz-adv-x="1197" d="M0 0v1800h900v-200h-700v-500h400v-200h-400v-700h700v-200h-900z" />
<glyph unicode="F" horiz-adv-x="1197" d="M0 0v1800h900v-200h-700v-500h400v-200h-400v-900h-200z" />
<glyph unicode="G" horiz-adv-x="1299" d="M0 500v800q0 500 500 500h500v-200h-500q-300 0 -300 -300v-800q0 -300 300 -300h300v700h-200v200h400v-1100h-500q-500 0 -500 500z" />
<glyph unicode="H" horiz-adv-x="1299" d="M0 0v1800h200v-700h600v700h200v-1800h-200v900h-600v-900h-200z" />
<glyph unicode="I" horiz-adv-x="501" d="M0 0v1800h200v-1800h-200z" />
<glyph unicode="J" horiz-adv-x="1197" d="M0 0v200h400q300 0 300 300v1300h200v-1300q0 -500 -500 -500h-400z" />
<glyph unicode="K" horiz-adv-x="1400" d="M0 0v1800h200v-800l700 800h259l-596 -717l595 -1083h-230l-519 939l-209 -239v-700h-200z" />
<glyph unicode="L" horiz-adv-x="1197" d="M0 0v1800h200v-1600h700v-200h-900z" />
<glyph unicode="M" horiz-adv-x="1400" d="M0 0v1800h150l400 -750l400 750h150v-1800h-200v1299l-350 -650l-350 650v-1299h-200z" />
<glyph unicode="N" horiz-adv-x="1309" d="M0 0v1800h150l650 -1295v1295h200v-1800h-150l-650 1244v-1244h-200z" />
<glyph unicode="O" horiz-adv-x="1299" d="M0 500v800q0 500 500 500t500 -500v-800q0 -500 -500 -500t-500 500zM200 500q0 -300 300 -300t300 300v800q0 300 -300 300t-300 -300v-800z" />
<glyph unicode="P" horiz-adv-x="1195" d="M0 0v1800h450q450 0 450 -550t-450 -550h-250v-700h-200zM200 900h250q250 0 250 350t-250 350h-250v-700z" />
<glyph unicode="Q" horiz-adv-x="1299" d="M0 500v800q0 500 500 500t500 -500v-800q-3 -85 -9.5 -147t-48.5 -135l126 -141l-165 -139l-130 132q-40 -36 -110 -54q-63 -16 -145 -16h-18q-500 0 -500 500zM200 500q0 -300 300 -300h13q79 0 120 23l-126 142l156 143l120 -127q18 2 18 80q0 18 -1 39v800 q0 300 -300 300t-300 -300v-800z" />
<glyph unicode="R" horiz-adv-x="1195" d="M0 0v1800h450q450 0 450 -550q0 -426 -246 -509l369 -741h-231l-352 700h-240v-700h-200zM200 900h250q250 0 250 350t-250 350h-250v-700z" />
<glyph unicode="S" horiz-adv-x="1299" d="M0 249l133 193q107 -140 246 -203q107 -38 212 -38q111 0 171 68t60 173q1 10 1 19q0 112 -111 183l-454 291q-255 146 -255 422q0 189 136 320.5t317 131.5q135 0 243 -27q89 -24 255 -100l-77 -214q-286 130 -421 130q-125 -7 -179.5 -66.5t-61.5 -174.5v-9 q0 -128 132 -219l440 -274q238 -129 238 -402v-11q0 -197 -121.5 -319.5t-312.5 -122.5q-368 0 -591 249z" />
<glyph unicode="T" horiz-adv-x="1299" d="M0 1600v200h1000v-200h-400v-1600h-200v1600h-400z" />
<glyph unicode="U" horiz-adv-x="1299" d="M0 500v1300h200v-1300q0 -300 300 -300t300 300v1300h200v-1300q0 -500 -500 -500t-500 500z" />
<glyph unicode="V" horiz-adv-x="1400" d="M0 1800h200l375 -1400l375 1400h200l-500 -1800h-150z" />
<glyph unicode="W" horiz-adv-x="1699" d="M0 1800h203l234 -1300l228 810h128l228 -810l235 1300h203l-329 -1800h-155l-246 846l-246 -846h-156z" />
<glyph unicode="X" horiz-adv-x="1402" d="M0 1800h217l333 -705l331 705h217l-419 -899l422 -901h-220l-331 709l-333 -709h-216l420 901z" />
<glyph unicode="Y" horiz-adv-x="1402" d="M0 1800h217l333 -675l331 675h217l-448 -900v-900h-200v900z" />
<glyph unicode="Z" horiz-adv-x="1197" d="M0 0v200l660 1400h-660v200h900v-200l-660 -1400h660v-200h-900z" />
<glyph unicode="[" horiz-adv-x="697" d="M0 -200v2200h400v-200h-200v-1800h200v-200h-400z" />
<glyph unicode="\" horiz-adv-x="1797" d="M0 1801l175 119l1169 -1898l-175 -120z" />
<glyph unicode="]" horiz-adv-x="697" d="M0 0h200v1800h-200v200h400v-2200h-400v200z" />
<glyph unicode="^" horiz-adv-x="699" d="M0 1300l157 500h200l-157 -500h-200z" />
<glyph unicode="_" horiz-adv-x="1096" d="M0 0h1100v-200h-1100v200z" />
<glyph unicode="`" horiz-adv-x="699" d="M0 1800h200l157 -500h-200z" />
<glyph unicode="a" horiz-adv-x="1397" d="M0 400v500q0 400 400 400h500v-928q0 -158 200 -186v-186q-227 0 -289 139q-69 -139 -311 -139h-100q-400 0 -400 400zM200 400q0 -200 200 -200h100q200 0 200 172v728h-300q-200 0 -200 -200v-500z" />
<glyph unicode="b" horiz-adv-x="1199" d="M0 0v1800h200v-500h300q400 0 400 -400v-500q0 -400 -400 -400h-500zM200 200h300q200 0 222 200v500q-22 200 -222 200h-300v-900z" />
<glyph unicode="c" horiz-adv-x="1197" d="M0 500v300q0 500 500 500h400v-200h-400q-300 0 -300 -300v-300q0 -300 300 -300h400v-200h-400q-500 0 -500 500z" />
<glyph unicode="d" horiz-adv-x="1199" d="M0 400v500q0 400 400 400h300v500h200v-1800h-500q-400 0 -400 400zM178 400q22 -200 222 -200h300v900h-300q-200 0 -222 -200v-500z" />
<glyph unicode="e" horiz-adv-x="1199" d="M0 400v500q0 400 400 400h100q400 0 400 -400v-350h-700v-150q0 -200 200 -200h500v-200h-500q-400 0 -400 400zM200 750h500v150q0 200 -200 200h-100q-200 0 -200 -200v-150z" />
<glyph unicode="f" horiz-adv-x="1100" d="M0 1100v200h200v100q0 400 400 400h200v-200h-200q-200 0 -200 -200v-100h400v-200h-400v-1100h-200v1100h-200z" />
<glyph unicode="g" horiz-adv-x="1199" d="M0 -300h500q200 0 200 200v100h-300q-400 0 -400 400v500q0 400 400 400h500v-1400q0 -400 -400 -400h-500v200zM178 400q22 -200 222 -200h300v900h-300q-200 0 -222 -200v-500z" />
<glyph unicode="h" horiz-adv-x="1197" d="M0 0v1800h200v-500h300q400 0 400 -400v-900h-200v900q0 200 -200 200h-300v-1100h-200z" />
<glyph unicode="i" horiz-adv-x="501" d="M0 0v1300h200v-1300h-200zM0 1600v199h200v-199h-200z" />
<glyph unicode="j" horiz-adv-x="600" d="M-300 -300h200q200 0 200 200v1400h200v-1400q0 -400 -400 -400h-200v200zM100 1600v200h200v-200h-200z" />
<glyph unicode="k" horiz-adv-x="1199" d="M0 0v1800h200v-1000l582 524l117 -156l-344 -320l388 -848h-225l-325 712l-193 -163v-549h-200z" />
<glyph unicode="l" horiz-adv-x="898" d="M0 400v1400h200v-1400q0 -200 200 -200h200v-200h-200q-400 0 -400 400z" />
<glyph unicode="m" horiz-adv-x="1501" d="M0 0v1300h800q400 0 400 -400v-900h-200v900q0 200 -200 200h-100v-1100h-200v1100h-300v-1100h-200z" />
<glyph unicode="n" horiz-adv-x="1197" d="M0 0v1300h500q400 0 400 -400v-900h-200v900q0 200 -200 200h-300v-1100h-200z" />
<glyph unicode="o" horiz-adv-x="1199" d="M0 500v300q0 500 450 500t450 -500v-300q0 -500 -450 -500t-450 500zM200 500q0 -300 250 -300t250 300v300q0 300 -250 300t-250 -300v-300z" />
<glyph unicode="p" horiz-adv-x="1199" d="M0 -500v1800h500q400 0 400 -400v-500q0 -400 -400 -400h-300v-500h-200zM200 200h300q200 0 222 200v500q-22 200 -222 200h-300v-900z" />
<glyph unicode="q" horiz-adv-x="1199" d="M0 400v500q0 400 400 400h500v-1800h-200v500h-300q-400 0 -400 400zM178 400q22 -200 222 -200h300v900h-300q-200 0 -222 -200v-500z" />
<glyph unicode="r" horiz-adv-x="1099" d="M0 0v1300h400q400 0 400 -400h-200q0 200 -200 200h-200v-1100h-200z" />
<glyph unicode="s" horiz-adv-x="1104" d="M-10 146l75 171q80 -43 169 -73.5t222 -44.5h6q183 0 211 126q0 71 -71 127l-430 230q-166 88 -166 304v8v7q0 139 116 224q103 75 257 75q146 0 251.5 -58.5t146.5 -97.5l-88 -151q-17 8 -55 31q-123 80 -255 80q-18 1 -34 1q-144 0 -151 -111q-1 -10 -1 -21 q0 -70 66 -121l414 -232q188 -90 188 -295q0 -170 -142 -255q-102 -70 -264 -70q-158 7 -280 49.5t-185 96.5z" />
<glyph unicode="t" horiz-adv-x="1100" d="M0 1100v200h200v500h200v-500h400v-200h-400v-1100h-200v1100h-200z" />
<glyph unicode="u" horiz-adv-x="1197" d="M0 400v900h200v-900q0 -200 200 -200h300v1100h200v-1300h-500q-400 0 -400 400z" />
<glyph unicode="v" horiz-adv-x="1300" d="M0 1300h200l296 -900l254 900h200l-379 -1300h-150z" />
<glyph unicode="w" horiz-adv-x="1500" d="M0 1300h200l211 -860l147 489h131l144 -489l223 859h193l-326 -1299h-138l-163 520l-166 -520h-135z" />
<glyph unicode="x" horiz-adv-x="1301" d="M0 0l371 651l-371 649h227l273 -455l271 455h229l-371 -649l371 -651h-229l-271 459l-273 -459h-227z" />
<glyph unicode="y" horiz-adv-x="1198" d="M-16 -300h73q129 0 179 148l87 290l-323 1162h200l230 -869l270 869h200l-496 -1536q-88 -264 -347 -264h-73v200z" />
<glyph unicode="z" horiz-adv-x="1100" d="M0 0v200l560 900h-560v200h800v-200l-560 -900h560v-200h-800z" />
<glyph unicode="{" horiz-adv-x="697" d="M0 -200v2200h400v-200h-200v-1800h200v-200h-400z" />
<glyph unicode="|" horiz-adv-x="501" d="M0 -200v2200h200v-2200h-200z" />
<glyph unicode="}" horiz-adv-x="697" d="M0 0h200v1800h-200v200h400v-2200h-400v200z" />
<glyph unicode="~" horiz-adv-x="2602" d="M0 209v1380h617q7 -1 16 -4l109 -83l10 -10l12 -8l10 -8l284 -217l2 18l-2 312h629l2 -1v-477q-1 0 -2 -2l-8 -12l-14 -26l-16 -21l-8 -13l-3 -16q-3 -6 -5 -13l-11 -29l-16 -23l-8 -8q-4 -6 -7 -13l-24 -35l-4 -16l-8 -11q-4 -5 -8 -11l-10 -28l-10 -10q-3 -7 -11 -8 q-6 0 -14 5l-10 9l-8 11l-4 17l-10 85q-1 8 -3 16l-6 70l-3 16l-8 13q-6 4 -12 6l-35 4l-35 -4l-15 -3l-22 -16l-3 -18v-37l3 -18q0 -8 2 -18l3 -15l53 -159q4 -6 5 -14l6 -34l9 -28q0 -8 3 -16q4 -6 7 -14q2 -7 3 -16l3 -16l5 -14l3 -16l7 -12q3 -6 8 -12l11 -27 q3 -6 7 -13q1 -6 6 -12l20 -18l16 -5q6 -3 16 -3h19q6 4 13 7l11 9q5 3 10 8l7 12q5 5 8 12l11 26l1 16v42q0 7 3 17l9 30q0 7 4 15l6 12l4 15l8 12l27 50q4 5 9 11l8 11q2 3 7 7v-613h-627q1 6 1 12l-185 257l-8 12l-233 323v-604h-637zM3 -3v132h25q10 -1 13 -10 q5 -7 10 -16l10 -15q3 -6 8 -15l9 -15l3 18v53h34v-130l-24 -2q-10 2 -16 7l-9 16q-4 7 -9 16l-9 15q-3 7 -9 14l-3 -15v-53h-33zM134 54v16l1 14l5 13l5 9l7 9l10 8l10 5l13 2h17l24 -6l9 -7q4 -4 8 -9l6 -10l3 -11l3 -15v-16l-5 -27l-6 -11l-7 -8l-10 -7l-9 -4l-15 -4h-16 l-14 4q-6 1 -11 4l-10 6l-7 9l-10 22zM171 57l1 -14q2 -4 5 -9l9 -7l13 -1l10 5l6 10l4 13v14l-3 14q-2 6 -5 11l-9 5l-13 2q-5 -2 -11 -6q-2 -5 -5 -10l-2 -13v-14zM257 129h34l13 -70l3 5l12 54q2 6 6 11l32 -1l15 -66l4 4l11 56q1 7 8 7h27l-25 -129q-7 -1 -14 -3h-16 q-6 2 -9 7l-16 66q-2 5 -2 7l-21 -77l-15 -3h-15q-6 3 -7 9zM422 -3l42 132h35q7 -1 9 -10l38 -118q-4 -3 -11 -4h-18q-7 2 -8 7l-5 14h-34q-8 -2 -9 -9l-5 -12h-34zM472 51q7 -3 14 -4h11l-14 47zM561 -3v132h36v-48l27 34q5 8 13 14h45l-3 -4l-11 -11q-4 -8 -12 -14 l-15 -23l42 -80h-37q-9 3 -12 12l-8 18q-3 7 -7 16l-3 5l-19 -21v-30h-36zM663 226v482l91 -114q2 -6 5 -13v-299q-3 -5 -8 -10l-86 -62zM674 1573l169 -24l173 -137q5 -5 10 -11l5 -92l-201 148l-10 10zM742 98v31h106q3 -5 4 -11v-16q-4 -5 -11 -5h-24q-1 -1 -2 -3v-97 h-24q-6 1 -12 3v90q-1 6 -9 7h-14q-6 0 -14 1zM779 884l1 -2l1 -14l5 -10l6 -9l6 -8l22 -9q5 -2 12 -4l14 -1l13 2l11 4q5 2 8 7l10 20l6 9l16 15l13 17l15 16l40 23l7 6q4 2 7 7q4 4 9 8l19 10l44 32l11 6q3 2 8 7l9 6h24l2 -4l9 -37l5 -147l3 -12q1 -6 3 -12l-7 -132 q0 -6 -2 -12l2 -30l-5 -24l-5 -10l-2 -13l4 -42l7 -22l2 -14l9 -22q0 -6 2 -13v-15l7 -68l4 -11l8 -9l10 -5l27 -3l11 -3l14 -3h13l25 6l9 6q3 5 10 7q4 3 7 7l7 39l4 12l1 13l-21 99q-3 5 -4 13l-2 14l-2 9l2 10l-2 5l-1 29l5 40v182l-4 26l-6 192l5 40l6 9l9 7l23 8l10 5 l8 7l21 9q5 1 11 5l10 6q3 3 8 6l29 18l11 2l9 7l9 5l13 4l9 5l22 25l5 10l3 11l3 13l-4 12l-7 9l-6 8l-6 8l-10 6l-12 3h-30l-30 -17l-8 -7q-4 -1 -9 -5l-10 -5l-15 -17l-17 -12l-10 -5l-9 -6l-13 -4l-28 -16l-14 -1l-21 -10l-13 -3q-7 1 -12 3l-36 10l-15 1q-6 -1 -13 -3 l-8 -6l-11 -5q-5 -1 -8 -6l-9 -7l-6 -25v-3v-8q0 -6 3 -12l3 -4l-4 -21l-5 -11l-27 -19l-11 -5q-4 -2 -8 -6q-4 -3 -9 -6l-24 -8l-28 -16l-11 -6q-4 -2 -9 -6l-9 -6l-30 -15l-15 -15l-20 -11l-10 -5l-15 -15l-48 -14l-10 -5l-14 -14l-8 -10l-5 -9l-5 -25zM867 0v129h97v-29 h-60v-18h55l1 -28h-55l-1 -3v-22l10 -1h44l8 -1v-30h-96zM985 -3v132h36v-100h57v-32h-93zM1093 0v129h96v-29h-60v-18h55l1 -28h-55l-1 -3v-22l10 -1h44l9 -1v-30h-96q-2 1 -3 3zM1199 129h38l2 -5l23 -87l5 10l19 70q0 8 10 12h30l-27 -78q-1 -8 -5 -17l-11 -37h-40z M1340 -3v132h36v-132h-36zM1394 38q0 2 3 3l25 1q9 -1 9 -13q7 -7 18 -9q8 2 14 9q0 11 -8 17q-8 4 -19 7l-19 7q-6 5 -13 12q-4 10 -5 22q1 8 6 18q5 7 14 12q7 5 17 6h18h8q8 -2 18 -7q6 -6 11 -15q3 -7 5 -16h-6l-24 -3q-6 5 -11 14l-7 3l-12 -3l-5 -9q3 -3 7 -6l40 -12 q6 -5 13 -12q5 -7 8 -18l1 -12l-3 -6v-4q-3 -8 -10 -16q-6 -5 -15 -8q-10 -5 -22 -5h-14l-7 2l-3 2q-9 1 -17 7q-5 7 -10 15zM1520 -3v132h37v-132h-37zM1576 54v16l2 14l4 13l6 9l7 9l9 8l12 5l11 2h17l25 -6l8 -7q4 -4 7 -9l6 -10l5 -11l1 -15v-16l-4 -27l-5 -11l-8 -8 l-8 -7l-12 -4l-12 -4h-18l-13 4q-6 1 -12 4l-9 6l-7 9l-10 22zM1612 57l4 -14q0 -4 4 -9l8 -7l13 -1l12 5l5 10l2 13v14l-2 14q-1 6 -5 11l-7 5l-14 2q-6 -2 -11 -6q-3 -5 -5 -10l-4 -13v-14zM1716 209v655l1 3l9 28l17 21q5 5 7 13l11 27q2 8 5 15l27 50l10 8l14 24l9 11 l11 7l14 25l8 10l22 35l10 11l12 7q6 3 11 7l8 11l10 11l37 19l15 6l40 35l17 42q2 7 3 15v38l-5 14l-7 13l-16 21l-12 7q-8 2 -16 3h-19l-15 -1q-9 -1 -17 -4l-14 -5l-21 -16l-28 -30l-23 -34l-42 -35l-49 -66l-21 -35l-18 -21l-5 -10v445l14 -6l10 -9l69 -45l2 -209l9 7 l14 22q5 6 11 10q4 5 10 9l24 33l47 30l13 6l17 3h18l34 -7l13 -6l22 -15l9 -11l16 -22l6 -14q2 -6 3 -16v-57l-13 -43l-23 -35q-4 -5 -10 -9l-47 -30q-7 -2 -14 -5l-12 -6l-13 -6l-8 -11q-5 -5 -9 -11l-13 -6q-4 -5 -10 -10q-2 -5 -7 -11l-50 -66q-3 -5 -6 -11l-26 -32 q-3 -6 -5 -15v-703l-2 -2l-66 -50l-9 -9l-12 -7zM1718 -3v132h25q9 -1 14 -10q4 -7 9 -16l9 -15l10 -15l8 -15l2 18v53h34v-130l-24 -2q-8 2 -15 7l-9 16q-4 7 -8 16l-10 15q-3 7 -10 14l-2 -15v-53h-33z" />
<glyph unicode="&#xa1;" horiz-adv-x="682" />
<glyph unicode="&#xa2;" />
<glyph unicode="&#xa3;" />
<glyph unicode="&#xa5;" />
<glyph unicode="&#xa6;" horiz-adv-x="532" />
<glyph unicode="&#xa7;" />
<glyph unicode="&#xa8;" horiz-adv-x="682" />
<glyph unicode="&#xa9;" horiz-adv-x="1509" />
<glyph unicode="&#xaa;" horiz-adv-x="758" />
<glyph unicode="&#xab;" />
<glyph unicode="&#xac;" horiz-adv-x="1196" />
<glyph unicode="&#xad;" horiz-adv-x="1300" d="M0 900v200h1000v-200h-1000z" />
<glyph unicode="&#xae;" horiz-adv-x="1509" />
<glyph unicode="&#xaf;" horiz-adv-x="1131" />
<glyph unicode="&#xb0;" horiz-adv-x="819" />
<glyph unicode="&#xb1;" horiz-adv-x="1124" />
<glyph unicode="&#xb2;" horiz-adv-x="682" />
<glyph unicode="&#xb3;" horiz-adv-x="682" />
<glyph unicode="&#xb4;" horiz-adv-x="682" />
<glyph unicode="&#xb5;" horiz-adv-x="1180" />
<glyph unicode="&#xb6;" horiz-adv-x="1100" />
<glyph unicode="&#xb7;" horiz-adv-x="682" />
<glyph unicode="&#xb8;" horiz-adv-x="682" />
<glyph unicode="&#xb9;" horiz-adv-x="682" />
<glyph unicode="&#xba;" horiz-adv-x="748" />
<glyph unicode="&#xbb;" />
<glyph unicode="&#xbc;" horiz-adv-x="1708" />
<glyph unicode="&#xbd;" horiz-adv-x="1708" />
<glyph unicode="&#xbe;" horiz-adv-x="1708" />
<glyph unicode="&#xbf;" horiz-adv-x="1251" />
<glyph unicode="&#xc0;" horiz-adv-x="1366" />
<glyph unicode="&#xc1;" horiz-adv-x="1366" />
<glyph unicode="&#xc2;" horiz-adv-x="1366" />
<glyph unicode="&#xc3;" horiz-adv-x="1366" />
<glyph unicode="&#xc4;" horiz-adv-x="1366" />
<glyph unicode="&#xc5;" horiz-adv-x="1366" />
<glyph unicode="&#xc6;" horiz-adv-x="2048" />
<glyph unicode="&#xc7;" horiz-adv-x="1479" />
<glyph unicode="&#xc8;" horiz-adv-x="1366" />
<glyph unicode="&#xc9;" horiz-adv-x="1366" />
<glyph unicode="&#xca;" horiz-adv-x="1366" />
<glyph unicode="&#xcb;" horiz-adv-x="1366" />
<glyph unicode="&#xcc;" horiz-adv-x="569" />
<glyph unicode="&#xcd;" horiz-adv-x="569" />
<glyph unicode="&#xce;" horiz-adv-x="569" />
<glyph unicode="&#xcf;" horiz-adv-x="569" />
<glyph unicode="&#xd0;" horiz-adv-x="1479" />
<glyph unicode="&#xd1;" horiz-adv-x="1479" />
<glyph unicode="&#xd2;" horiz-adv-x="1593" />
<glyph unicode="&#xd3;" horiz-adv-x="1299" d="M0 500v800q0 500 500 500t500 -500v-800q0 -500 -500 -500t-500 500zM200 500q0 -300 300 -300t300 300v800q0 300 -300 300t-300 -300v-800zM400 1861l157 340h200l-157 -340h-200z" />
<glyph unicode="&#xd4;" horiz-adv-x="1593" />
<glyph unicode="&#xd5;" horiz-adv-x="1593" />
<glyph unicode="&#xd6;" horiz-adv-x="1593" />
<glyph unicode="&#xd7;" horiz-adv-x="1196" />
<glyph unicode="&#xd8;" horiz-adv-x="1593" />
<glyph unicode="&#xd9;" horiz-adv-x="1479" />
<glyph unicode="&#xda;" horiz-adv-x="1479" />
<glyph unicode="&#xdb;" horiz-adv-x="1479" />
<glyph unicode="&#xdc;" horiz-adv-x="1479" />
<glyph unicode="&#xdd;" horiz-adv-x="1366" />
<glyph unicode="&#xde;" horiz-adv-x="1366" />
<glyph unicode="&#xdf;" horiz-adv-x="1251" />
<glyph unicode="&#xe0;" />
<glyph unicode="&#xe1;" />
<glyph unicode="&#xe2;" />
<glyph unicode="&#xe3;" />
<glyph unicode="&#xe4;" />
<glyph unicode="&#xe5;" />
<glyph unicode="&#xe6;" horiz-adv-x="1821" />
<glyph unicode="&#xe7;" horiz-adv-x="1024" />
<glyph unicode="&#xe8;" />
<glyph unicode="&#xe9;" />
<glyph unicode="&#xea;" />
<glyph unicode="&#xeb;" />
<glyph unicode="&#xec;" horiz-adv-x="569" />
<glyph unicode="&#xed;" horiz-adv-x="569" />
<glyph unicode="&#xee;" horiz-adv-x="569" />
<glyph unicode="&#xef;" horiz-adv-x="569" />
<glyph unicode="&#xf0;" />
<glyph unicode="&#xf1;" />
<glyph unicode="&#xf2;" />
<glyph unicode="&#xf3;" horiz-adv-x="1199" d="M0 500v300q0 500 450 500t450 -500v-300q0 -500 -450 -500t-450 500zM200 500q0 -300 250 -300t250 300v300q0 300 -250 300t-250 -300v-300zM400 1461l157 340h200l-157 -340h-200z" />
<glyph unicode="&#xf4;" />
<glyph unicode="&#xf5;" />
<glyph unicode="&#xf6;" />
<glyph unicode="&#xf7;" horiz-adv-x="1124" />
<glyph unicode="&#xf8;" horiz-adv-x="1251" />
<glyph unicode="&#xf9;" />
<glyph unicode="&#xfa;" />
<glyph unicode="&#xfb;" />
<glyph unicode="&#xfc;" />
<glyph unicode="&#xfd;" horiz-adv-x="1024" />
<glyph unicode="&#xfe;" />
<glyph unicode="&#xff;" horiz-adv-x="1024" />
<glyph unicode="&#x152;" horiz-adv-x="2048" />
<glyph unicode="&#x153;" horiz-adv-x="1933" />
<glyph unicode="&#x178;" horiz-adv-x="1366" />
<glyph unicode="&#x2c6;" horiz-adv-x="682" />
<glyph unicode="&#x2dc;" horiz-adv-x="682" />
<glyph unicode="&#x2000;" horiz-adv-x="1100" />
<glyph unicode="&#x2001;" horiz-adv-x="2201" />
<glyph unicode="&#x2002;" horiz-adv-x="1100" />
<glyph unicode="&#x2003;" horiz-adv-x="2201" />
<glyph unicode="&#x2004;" horiz-adv-x="733" />
<glyph unicode="&#x2005;" horiz-adv-x="550" />
<glyph unicode="&#x2006;" horiz-adv-x="366" />
<glyph unicode="&#x2007;" horiz-adv-x="366" />
<glyph unicode="&#x2008;" horiz-adv-x="275" />
<glyph unicode="&#x2009;" horiz-adv-x="440" />
<glyph unicode="&#x200a;" horiz-adv-x="122" />
<glyph unicode="&#x2010;" horiz-adv-x="1300" d="M0 900v200h1000v-200h-1000z" />
<glyph unicode="&#x2011;" horiz-adv-x="1300" d="M0 900v200h1000v-200h-1000z" />
<glyph unicode="&#x2012;" horiz-adv-x="1300" d="M0 900v200h1000v-200h-1000z" />
<glyph unicode="&#x2013;" />
<glyph unicode="&#x2014;" horiz-adv-x="2048" />
<glyph unicode="&#x2018;" horiz-adv-x="455" />
<glyph unicode="&#x2019;" horiz-adv-x="455" />
<glyph unicode="&#x201a;" horiz-adv-x="455" />
<glyph unicode="&#x201c;" horiz-adv-x="682" />
<glyph unicode="&#x201d;" horiz-adv-x="682" />
<glyph unicode="&#x201e;" horiz-adv-x="682" />
<glyph unicode="&#x2022;" horiz-adv-x="717" />
<glyph unicode="&#x2026;" horiz-adv-x="2048" />
<glyph unicode="&#x202f;" horiz-adv-x="440" />
<glyph unicode="&#x2039;" horiz-adv-x="682" />
<glyph unicode="&#x203a;" horiz-adv-x="682" />
<glyph unicode="&#x205f;" horiz-adv-x="550" />
<glyph unicode="&#x20ac;" />
<glyph unicode="&#x2122;" horiz-adv-x="2048" />
<glyph unicode="&#x25fc;" horiz-adv-x="1300" d="M0 0v1300h1300v-1300h-1300z" />
<glyph unicode="&#xfb01;" horiz-adv-x="1024" />
<glyph unicode="&#xfb02;" horiz-adv-x="1024" />
</font>
</defs>
</svg>
